# xmcd
#
# Track frame offsets: 
#        150
#        17654
#        36465
#        52311
#        70480
#        87762
#        104740
#        123862
#        136822
#        147196
#        165552
#
# Disc length: 2545 seconds
#
# Revision: 0
# Processed by: cddbd v1.5.2PL0 Copyright (c) Steve Scherf et al.
# Submitted via: ExactAudioCopy v0.99pb4
#
DISCID=9e09ef0b
DTITLE=McKenzie - Walking on Steel
DYEAR=2007
DGENRE=Country
TTITLE0=Lovestruck
TTITLE1=Are you comiing out to play
TTITLE2=I've got a Fender guitar
TTITLE3=Step into the light
TTITLE4=Mr Busy
TTITLE5=Make love to me
TTITLE6=Goldrush
TTITLE7=Happy blues
TTITLE8=My little one
TTITLE9=Chelsea day
TTITLE10=Bonus tracks - The dark Isle and Red red rose
EXTD=
EXTT0=
EXTT1=
EXTT2=
EXTT3=
EXTT4=
EXTT5=
EXTT6=
EXTT7=
EXTT8=
EXTT9=
EXTT10=
PLAYORDER=
